<mxfile host="app.diagrams.net" modified="2020-12-04T14:07:33.728Z" agent="5.0 (Windows NT 10.0; Win64; x64) AppleWebKit/537.36 (KHTML, like Gecko) Chrome/86.0.4240.198 Safari/537.36" etag="jGTXBA2avbxeBelsZJWM" version="13.10.8" type="github">
  <diagram id="4mu_VsUJUEG9aU0Qgn0D" name="Page-1">
    <mxGraphModel dx="2710" dy="1963" grid="1" gridSize="10" guides="1" tooltips="1" connect="1" arrows="1" fold="1" page="1" pageScale="1" pageWidth="827" pageHeight="1169" math="0" shadow="0">
      <root>
        <mxCell id="0" />
        <mxCell id="1" parent="0" />
        <mxCell id="Yh4DcJs_3DgUc0yio_fJ-17" style="rounded=0;orthogonalLoop=1;jettySize=auto;html=1;exitX=0.75;exitY=1;exitDx=0;exitDy=0;entryX=0.75;entryY=0;entryDx=0;entryDy=0;" parent="1" source="Yh4DcJs_3DgUc0yio_fJ-1" target="Yh4DcJs_3DgUc0yio_fJ-4" edge="1">
          <mxGeometry relative="1" as="geometry">
            <mxPoint x="359" y="450" as="targetPoint" />
          </mxGeometry>
        </mxCell>
        <mxCell id="Yh4DcJs_3DgUc0yio_fJ-21" style="edgeStyle=none;rounded=0;orthogonalLoop=1;jettySize=auto;html=1;entryX=1.02;entryY=0.243;entryDx=0;entryDy=0;entryPerimeter=0;" parent="1" source="Yh4DcJs_3DgUc0yio_fJ-1" target="Yh4DcJs_3DgUc0yio_fJ-3" edge="1">
          <mxGeometry relative="1" as="geometry">
            <mxPoint x="140" y="295" as="targetPoint" />
          </mxGeometry>
        </mxCell>
        <mxCell id="Yh4DcJs_3DgUc0yio_fJ-23" style="edgeStyle=none;rounded=0;orthogonalLoop=1;jettySize=auto;html=1;entryX=0.659;entryY=1.016;entryDx=0;entryDy=0;entryPerimeter=0;" parent="1" source="Yh4DcJs_3DgUc0yio_fJ-1" target="Yh4DcJs_3DgUc0yio_fJ-9" edge="1">
          <mxGeometry relative="1" as="geometry" />
        </mxCell>
        <mxCell id="Yh4DcJs_3DgUc0yio_fJ-26" style="rounded=0;orthogonalLoop=1;jettySize=auto;html=1;entryX=-0.001;entryY=0.819;entryDx=0;entryDy=0;entryPerimeter=0;" parent="1" source="Yh4DcJs_3DgUc0yio_fJ-1" target="Yh4DcJs_3DgUc0yio_fJ-7" edge="1">
          <mxGeometry relative="1" as="geometry" />
        </mxCell>
        <mxCell id="Yh4DcJs_3DgUc0yio_fJ-55" style="edgeStyle=none;rounded=0;orthogonalLoop=1;jettySize=auto;html=1;entryX=1.02;entryY=0.708;entryDx=0;entryDy=0;entryPerimeter=0;" parent="1" source="Yh4DcJs_3DgUc0yio_fJ-1" target="Yh4DcJs_3DgUc0yio_fJ-51" edge="1">
          <mxGeometry relative="1" as="geometry" />
        </mxCell>
        <mxCell id="Yh4DcJs_3DgUc0yio_fJ-1" value="Quản lý&amp;nbsp;&lt;span style=&quot;color: rgba(0 , 0 , 0 , 0) ; font-family: monospace ; font-size: 0px&quot;&gt;%3CmxGraphModel%3E%3Croot%3E%3CmxCell%20id%3D%220%22%2F%3E%3CmxCell%20id%3D%221%22%20parent%3D%220%22%2F%3E%3CmxCell%20id%3D%222%22%20value%3D%223.1%22%20style%3D%22swimlane%3BchildLayout%3DstackLayout%3Bhorizontal%3D1%3BstartSize%3D30%3BhorizontalStack%3D0%3Brounded%3D1%3BfontSize%3D14%3BfontStyle%3D0%3BstrokeWidth%3D2%3BresizeParent%3D0%3BresizeLast%3D1%3Bshadow%3D0%3Bdashed%3D0%3Balign%3Dcenter%3B%22%20vertex%3D%221%22%20parent%3D%221%22%3E%3CmxGeometry%20x%3D%22150%22%20y%3D%22240%22%20width%3D%22160%22%20height%3D%22120%22%20as%3D%22geometry%22%2F%3E%3C%2FmxCell%3E%3CmxCell%20id%3D%223%22%20value%3D%22%26lt%3Bfont%20style%3D%26quot%3Bfont-size%3A%2016px%26quot%3B%26gt%3BT%E1%BA%A1o%20TTNCC%26lt%3B%2Ffont%26gt%3B%22%20style%3D%22text%3Bhtml%3D1%3Balign%3Dcenter%3BverticalAlign%3Dmiddle%3Bresizable%3D0%3Bpoints%3D%5B%5D%3Bautosize%3D1%3B%22%20vertex%3D%221%22%20parent%3D%222%22%3E%3CmxGeometry%20y%3D%2230%22%20width%3D%22160%22%20height%3D%2290%22%20as%3D%22geometry%22%2F%3E%3C%2FmxCell%3E%3C%2Froot%3E%3C%2FmxGraphModel%3E&lt;/span&gt;" style="html=1;dashed=0;whitespace=wrap;" parent="1" vertex="1">
          <mxGeometry x="284" y="270" width="100" height="50" as="geometry" />
        </mxCell>
        <mxCell id="Yh4DcJs_3DgUc0yio_fJ-2" value="4.1" style="swimlane;childLayout=stackLayout;horizontal=1;startSize=30;horizontalStack=0;rounded=1;fontSize=14;fontStyle=0;strokeWidth=2;resizeParent=0;resizeLast=1;shadow=0;dashed=0;align=center;" parent="1" vertex="1">
          <mxGeometry x="-75" y="480" width="160" height="100" as="geometry" />
        </mxCell>
        <mxCell id="Yh4DcJs_3DgUc0yio_fJ-3" value="&lt;font style=&quot;font-size: 16px&quot;&gt;Thống kê doanh thu&lt;/font&gt;" style="text;html=1;align=center;verticalAlign=middle;resizable=0;points=[];autosize=1;" parent="Yh4DcJs_3DgUc0yio_fJ-2" vertex="1">
          <mxGeometry y="30" width="160" height="70" as="geometry" />
        </mxCell>
        <mxCell id="Yh4DcJs_3DgUc0yio_fJ-18" style="edgeStyle=none;rounded=0;orthogonalLoop=1;jettySize=auto;html=1;entryX=0.25;entryY=1;entryDx=0;entryDy=0;exitX=0.309;exitY=-0.033;exitDx=0;exitDy=0;exitPerimeter=0;" parent="1" source="Yh4DcJs_3DgUc0yio_fJ-4" target="Yh4DcJs_3DgUc0yio_fJ-1" edge="1">
          <mxGeometry relative="1" as="geometry" />
        </mxCell>
        <mxCell id="Yh4DcJs_3DgUc0yio_fJ-4" value="4.2" style="swimlane;childLayout=stackLayout;horizontal=1;startSize=30;horizontalStack=0;rounded=1;fontSize=14;fontStyle=0;strokeWidth=2;resizeParent=0;resizeLast=1;shadow=0;dashed=0;align=center;" parent="1" vertex="1">
          <mxGeometry x="332" y="460" width="136" height="90" as="geometry" />
        </mxCell>
        <mxCell id="Yh4DcJs_3DgUc0yio_fJ-5" value="&lt;font style=&quot;font-size: 16px&quot;&gt;Thống kê sản phẩm&lt;/font&gt;" style="text;html=1;align=center;verticalAlign=middle;resizable=0;points=[];autosize=1;" parent="Yh4DcJs_3DgUc0yio_fJ-4" vertex="1">
          <mxGeometry y="30" width="136" height="60" as="geometry" />
        </mxCell>
        <mxCell id="Yh4DcJs_3DgUc0yio_fJ-52" style="edgeStyle=orthogonalEdgeStyle;rounded=0;orthogonalLoop=1;jettySize=auto;html=1;entryX=0.5;entryY=0;entryDx=0;entryDy=0;" parent="1" source="Yh4DcJs_3DgUc0yio_fJ-6" target="Yh4DcJs_3DgUc0yio_fJ-1" edge="1">
          <mxGeometry relative="1" as="geometry" />
        </mxCell>
        <mxCell id="Yh4DcJs_3DgUc0yio_fJ-6" value="4.3" style="swimlane;childLayout=stackLayout;horizontal=1;startSize=30;horizontalStack=0;rounded=1;fontSize=14;fontStyle=0;strokeWidth=2;resizeParent=0;resizeLast=1;shadow=0;dashed=0;align=center;" parent="1" vertex="1">
          <mxGeometry x="540" y="190" width="160" height="120" as="geometry" />
        </mxCell>
        <mxCell id="Yh4DcJs_3DgUc0yio_fJ-7" value="&lt;font style=&quot;font-size: 16px&quot;&gt;Thống kê công nợ&lt;/font&gt;" style="text;html=1;align=center;verticalAlign=middle;resizable=0;points=[];autosize=1;" parent="Yh4DcJs_3DgUc0yio_fJ-6" vertex="1">
          <mxGeometry y="30" width="160" height="90" as="geometry" />
        </mxCell>
        <mxCell id="Yh4DcJs_3DgUc0yio_fJ-8" value="4.4" style="swimlane;childLayout=stackLayout;horizontal=1;startSize=30;horizontalStack=0;rounded=1;fontSize=14;fontStyle=0;strokeWidth=2;resizeParent=0;resizeLast=1;shadow=0;dashed=0;align=center;" parent="1" vertex="1">
          <mxGeometry x="60" y="50" width="160" height="120" as="geometry" />
        </mxCell>
        <mxCell id="Yh4DcJs_3DgUc0yio_fJ-9" value="&lt;font style=&quot;font-size: 16px&quot;&gt;Thống kê chi&lt;/font&gt;" style="text;html=1;align=center;verticalAlign=middle;resizable=0;points=[];autosize=1;" parent="Yh4DcJs_3DgUc0yio_fJ-8" vertex="1">
          <mxGeometry y="30" width="160" height="90" as="geometry" />
        </mxCell>
        <mxCell id="Yh4DcJs_3DgUc0yio_fJ-16" style="rounded=0;orthogonalLoop=1;jettySize=auto;html=1;entryX=0.592;entryY=0.987;entryDx=0;entryDy=0;entryPerimeter=0;" parent="1" source="Yh4DcJs_3DgUc0yio_fJ-12" target="Yh4DcJs_3DgUc0yio_fJ-5" edge="1">
          <mxGeometry relative="1" as="geometry" />
        </mxCell>
        <mxCell id="Yh4DcJs_3DgUc0yio_fJ-12" value="Sản phẩm&amp;nbsp;" style="html=1;dashed=0;whitespace=wrap;shape=partialRectangle;right=0;left=0;" parent="1" vertex="1">
          <mxGeometry x="420" y="615" width="100" height="30" as="geometry" />
        </mxCell>
        <mxCell id="Yh4DcJs_3DgUc0yio_fJ-15" style="rounded=0;orthogonalLoop=1;jettySize=auto;html=1;" parent="1" source="Yh4DcJs_3DgUc0yio_fJ-13" target="Yh4DcJs_3DgUc0yio_fJ-5" edge="1">
          <mxGeometry relative="1" as="geometry" />
        </mxCell>
        <mxCell id="Yh4DcJs_3DgUc0yio_fJ-66" style="edgeStyle=orthogonalEdgeStyle;rounded=0;orthogonalLoop=1;jettySize=auto;html=1;entryX=0.476;entryY=1.031;entryDx=0;entryDy=0;entryPerimeter=0;" parent="1" source="Yh4DcJs_3DgUc0yio_fJ-13" target="Yh4DcJs_3DgUc0yio_fJ-3" edge="1">
          <mxGeometry relative="1" as="geometry" />
        </mxCell>
        <mxCell id="Yh4DcJs_3DgUc0yio_fJ-13" value="Hóa đơn" style="html=1;dashed=0;whitespace=wrap;shape=partialRectangle;right=0;left=0;" parent="1" vertex="1">
          <mxGeometry x="284" y="615" width="100" height="30" as="geometry" />
        </mxCell>
        <mxCell id="Yh4DcJs_3DgUc0yio_fJ-19" style="edgeStyle=none;rounded=0;orthogonalLoop=1;jettySize=auto;html=1;exitX=1.013;exitY=0.092;exitDx=0;exitDy=0;exitPerimeter=0;" parent="1" source="Yh4DcJs_3DgUc0yio_fJ-2" edge="1">
          <mxGeometry relative="1" as="geometry">
            <mxPoint x="280" y="315" as="targetPoint" />
          </mxGeometry>
        </mxCell>
        <mxCell id="Yh4DcJs_3DgUc0yio_fJ-22" style="edgeStyle=orthogonalEdgeStyle;rounded=0;orthogonalLoop=1;jettySize=auto;html=1;entryX=0.25;entryY=0;entryDx=0;entryDy=0;" parent="1" source="Yh4DcJs_3DgUc0yio_fJ-9" target="Yh4DcJs_3DgUc0yio_fJ-1" edge="1">
          <mxGeometry relative="1" as="geometry" />
        </mxCell>
        <mxCell id="Yh4DcJs_3DgUc0yio_fJ-28" value="kết quả thống kê" style="text;html=1;strokeColor=none;fillColor=none;align=center;verticalAlign=middle;whiteSpace=wrap;rounded=0;" parent="1" vertex="1">
          <mxGeometry x="80" y="410" width="120" height="40" as="geometry" />
        </mxCell>
        <mxCell id="Yh4DcJs_3DgUc0yio_fJ-29" value="&amp;nbsp;thời gian" style="text;html=1;strokeColor=none;fillColor=none;align=center;verticalAlign=middle;whiteSpace=wrap;rounded=0;" parent="1" vertex="1">
          <mxGeometry x="125" y="495" width="90" height="20" as="geometry" />
        </mxCell>
        <mxCell id="Yh4DcJs_3DgUc0yio_fJ-30" value="kết quả thống kê" style="text;html=1;strokeColor=none;fillColor=none;align=center;verticalAlign=middle;whiteSpace=wrap;rounded=0;" parent="1" vertex="1">
          <mxGeometry x="220" y="90" width="120" height="40" as="geometry" />
        </mxCell>
        <mxCell id="Yh4DcJs_3DgUc0yio_fJ-31" value="thời gian" style="text;html=1;strokeColor=none;fillColor=none;align=center;verticalAlign=middle;whiteSpace=wrap;rounded=0;" parent="1" vertex="1">
          <mxGeometry x="140" y="200" width="90" height="20" as="geometry" />
        </mxCell>
        <mxCell id="Yh4DcJs_3DgUc0yio_fJ-33" value="kết quả thống kê" style="text;html=1;strokeColor=none;fillColor=none;align=center;verticalAlign=middle;whiteSpace=wrap;rounded=0;" parent="1" vertex="1">
          <mxGeometry x="402" y="210" width="120" height="40" as="geometry" />
        </mxCell>
        <mxCell id="Yh4DcJs_3DgUc0yio_fJ-36" value="kết quả thống kê" style="text;html=1;strokeColor=none;fillColor=none;align=center;verticalAlign=middle;whiteSpace=wrap;rounded=0;" parent="1" vertex="1">
          <mxGeometry x="245" y="420" width="120" height="40" as="geometry" />
        </mxCell>
        <mxCell id="Yh4DcJs_3DgUc0yio_fJ-37" value="thời gian" style="text;html=1;strokeColor=none;fillColor=none;align=center;verticalAlign=middle;whiteSpace=wrap;rounded=0;" parent="1" vertex="1">
          <mxGeometry x="420" y="410" width="90" height="20" as="geometry" />
        </mxCell>
        <mxCell id="Yh4DcJs_3DgUc0yio_fJ-38" value="thời gian" style="text;html=1;strokeColor=none;fillColor=none;align=center;verticalAlign=middle;whiteSpace=wrap;rounded=0;" parent="1" vertex="1">
          <mxGeometry x="402" y="280" width="90" height="20" as="geometry" />
        </mxCell>
        <mxCell id="Yh4DcJs_3DgUc0yio_fJ-41" style="edgeStyle=none;rounded=0;orthogonalLoop=1;jettySize=auto;html=1;exitX=0;exitY=0.75;exitDx=0;exitDy=0;entryX=1.02;entryY=0.814;entryDx=0;entryDy=0;entryPerimeter=0;" parent="1" source="Yh4DcJs_3DgUc0yio_fJ-39" target="Yh4DcJs_3DgUc0yio_fJ-7" edge="1">
          <mxGeometry relative="1" as="geometry">
            <mxPoint x="671" y="331" as="targetPoint" />
          </mxGeometry>
        </mxCell>
        <mxCell id="Yh4DcJs_3DgUc0yio_fJ-39" value="công nợ" style="html=1;dashed=0;whitespace=wrap;shape=partialRectangle;right=0;left=0;" parent="1" vertex="1">
          <mxGeometry x="760" y="310" width="100" height="30" as="geometry" />
        </mxCell>
        <mxCell id="Yh4DcJs_3DgUc0yio_fJ-59" style="edgeStyle=orthogonalEdgeStyle;rounded=0;orthogonalLoop=1;jettySize=auto;html=1;entryX=0.75;entryY=0;entryDx=0;entryDy=0;" parent="1" source="Yh4DcJs_3DgUc0yio_fJ-45" target="Yh4DcJs_3DgUc0yio_fJ-8" edge="1">
          <mxGeometry relative="1" as="geometry">
            <Array as="points">
              <mxPoint x="180" y="-30" />
              <mxPoint x="180" y="-30" />
            </Array>
          </mxGeometry>
        </mxCell>
        <mxCell id="Yh4DcJs_3DgUc0yio_fJ-45" value="Phiếu đặt hàng" style="html=1;dashed=0;whitespace=wrap;shape=partialRectangle;right=0;left=0;" parent="1" vertex="1">
          <mxGeometry x="130" y="-90" width="110" height="50" as="geometry" />
        </mxCell>
        <mxCell id="Yh4DcJs_3DgUc0yio_fJ-50" value="4.4" style="swimlane;childLayout=stackLayout;horizontal=1;startSize=30;horizontalStack=0;rounded=1;fontSize=14;fontStyle=0;strokeWidth=2;resizeParent=0;resizeLast=1;shadow=0;dashed=0;align=center;" parent="1" vertex="1">
          <mxGeometry x="-190" y="210" width="160" height="120" as="geometry" />
        </mxCell>
        <mxCell id="Yh4DcJs_3DgUc0yio_fJ-51" value="&lt;span style=&quot;font-size: 16px&quot;&gt;Thống kê lợi nhuận&lt;/span&gt;" style="text;html=1;align=center;verticalAlign=middle;resizable=0;points=[];autosize=1;" parent="Yh4DcJs_3DgUc0yio_fJ-50" vertex="1">
          <mxGeometry y="30" width="160" height="90" as="geometry" />
        </mxCell>
        <mxCell id="Yh4DcJs_3DgUc0yio_fJ-54" style="edgeStyle=none;rounded=0;orthogonalLoop=1;jettySize=auto;html=1;entryX=0;entryY=0.25;entryDx=0;entryDy=0;exitX=1.006;exitY=0.201;exitDx=0;exitDy=0;exitPerimeter=0;" parent="1" source="Yh4DcJs_3DgUc0yio_fJ-51" target="Yh4DcJs_3DgUc0yio_fJ-1" edge="1">
          <mxGeometry relative="1" as="geometry">
            <Array as="points">
              <mxPoint y="260" />
            </Array>
          </mxGeometry>
        </mxCell>
        <mxCell id="Yh4DcJs_3DgUc0yio_fJ-56" value="kết quả thống kê" style="text;html=1;strokeColor=none;fillColor=none;align=center;verticalAlign=middle;whiteSpace=wrap;rounded=0;" parent="1" vertex="1">
          <mxGeometry x="60" y="230" width="120" height="40" as="geometry" />
        </mxCell>
        <mxCell id="Yh4DcJs_3DgUc0yio_fJ-57" style="edgeStyle=orthogonalEdgeStyle;rounded=0;orthogonalLoop=1;jettySize=auto;html=1;entryX=0.5;entryY=0;entryDx=0;entryDy=0;" parent="1" source="Yh4DcJs_3DgUc0yio_fJ-9" target="Yh4DcJs_3DgUc0yio_fJ-50" edge="1">
          <mxGeometry relative="1" as="geometry">
            <mxPoint x="230" y="135" as="sourcePoint" />
            <mxPoint x="319" y="280" as="targetPoint" />
            <Array as="points">
              <mxPoint x="-110" y="125" />
            </Array>
          </mxGeometry>
        </mxCell>
        <mxCell id="Yh4DcJs_3DgUc0yio_fJ-60" style="edgeStyle=orthogonalEdgeStyle;rounded=0;orthogonalLoop=1;jettySize=auto;html=1;exitX=0.5;exitY=0;exitDx=0;exitDy=0;" parent="1" source="Yh4DcJs_3DgUc0yio_fJ-2" target="Yh4DcJs_3DgUc0yio_fJ-51" edge="1">
          <mxGeometry relative="1" as="geometry">
            <Array as="points">
              <mxPoint x="66" y="380" />
              <mxPoint x="-110" y="380" />
            </Array>
          </mxGeometry>
        </mxCell>
        <mxCell id="Yh4DcJs_3DgUc0yio_fJ-61" value="kết quả thống kê" style="text;html=1;strokeColor=none;fillColor=none;align=center;verticalAlign=middle;whiteSpace=wrap;rounded=0;" parent="1" vertex="1">
          <mxGeometry x="-110" y="80" width="120" height="40" as="geometry" />
        </mxCell>
        <mxCell id="Yh4DcJs_3DgUc0yio_fJ-62" value="kết quả thống kê" style="text;html=1;strokeColor=none;fillColor=none;align=center;verticalAlign=middle;whiteSpace=wrap;rounded=0;" parent="1" vertex="1">
          <mxGeometry x="-100" y="340" width="120" height="40" as="geometry" />
        </mxCell>
        <mxCell id="Yh4DcJs_3DgUc0yio_fJ-63" value="thời gian" style="text;html=1;strokeColor=none;fillColor=none;align=center;verticalAlign=middle;whiteSpace=wrap;rounded=0;" parent="1" vertex="1">
          <mxGeometry x="65" y="300" width="90" height="20" as="geometry" />
        </mxCell>
      </root>
    </mxGraphModel>
  </diagram>
</mxfile>
